<mxfile host="app.diagrams.net" agent="Mozilla/5.0 (Windows NT 10.0; Win64; x64) AppleWebKit/537.36 (KHTML, like Gecko) Chrome/138.0.0.0 Safari/537.36" version="28.0.5">
  <diagram name="ER Diagram" id="Ht7ePYE3DVWwx6v_i5Po">
    <mxGraphModel dx="1091" dy="473" grid="1" gridSize="10" guides="1" tooltips="1" connect="1" arrows="1" fold="1" page="1" pageScale="1" pageWidth="850" pageHeight="1100" math="0" shadow="0">
      <root>
        <mxCell id="0" />
        <mxCell id="1" parent="0" />
        <mxCell id="ZcP2iAY77bGM6cyzcqNs-1" value="ER - Customer Behaviour Data Warehouse" style="text;html=1;strokeColor=none;fillColor=none;align=center;verticalAlign=middle;whiteSpace=wrap;rounded=0;fontSize=20;fontStyle=1" vertex="1" parent="1">
          <mxGeometry x="400" y="10" width="400" height="30" as="geometry" />
        </mxCell>
        <mxCell id="ZcP2iAY77bGM6cyzcqNs-2" value="&lt;div&gt;&lt;b&gt;Fact_Transaction&lt;/b&gt;&lt;/div&gt;&lt;div&gt;&lt;hr&gt;&lt;/div&gt;&lt;div&gt;&lt;u&gt;Transaction_id (PK)&lt;/u&gt;&lt;/div&gt;&lt;div&gt;Customer_ID (FK)&lt;/div&gt;&lt;div&gt;Product_id (FK)&lt;/div&gt;&lt;div&gt;Store_Location (FK)&lt;/div&gt;&lt;div&gt;Purchase_Date&lt;/div&gt;&lt;div&gt;Unit_Price&lt;/div&gt;&lt;div&gt;Quantity&lt;/div&gt;&lt;div&gt;Total_Price&lt;/div&gt;&lt;div&gt;Payment_Method&lt;/div&gt;&lt;div&gt;Order_Status&lt;/div&gt;" style="whiteSpace=wrap;html=1;align=left;fillColor=#fff2cc;strokeColor=#d6b656;verticalAlign=top;fontSize=12;" vertex="1" parent="1">
          <mxGeometry x="450" y="300" width="220" height="190" as="geometry" />
        </mxCell>
        <mxCell id="ZcP2iAY77bGM6cyzcqNs-3" value="&lt;div&gt;&lt;b&gt;Dim_customer&lt;/b&gt;&lt;/div&gt;&lt;div&gt;&lt;hr&gt;&lt;/div&gt;&lt;div&gt;&lt;u&gt;customer_id (PK)&lt;/u&gt;&lt;/div&gt;&lt;div&gt;first_name&lt;/div&gt;&lt;div&gt;last_name&lt;/div&gt;&lt;div&gt;gender&lt;/div&gt;&lt;div&gt;age&lt;/div&gt;&lt;div&gt;signup_date&lt;/div&gt;&lt;div&gt;loyalty_program&lt;/div&gt;&lt;div&gt;email&lt;/div&gt;&lt;div&gt;city&lt;/div&gt;&lt;div&gt;state&lt;/div&gt;&lt;div&gt;country&lt;/div&gt;" style="whiteSpace=wrap;html=1;align=left;fillColor=#dae8fc;strokeColor=#6c8ebf;verticalAlign=top;fontSize=12;" vertex="1" parent="1">
          <mxGeometry x="140" y="240" width="180" height="200" as="geometry" />
        </mxCell>
        <mxCell id="ZcP2iAY77bGM6cyzcqNs-4" value="&lt;div&gt;&lt;b&gt;Dim_product&lt;/b&gt;&lt;/div&gt;&lt;div&gt;&lt;hr&gt;&lt;/div&gt;&lt;div&gt;&lt;u&gt;product_id (PK)&lt;/u&gt;&lt;/div&gt;&lt;div&gt;product_name&lt;/div&gt;&lt;div&gt;category&lt;/div&gt;&lt;div&gt;sub_category&lt;/div&gt;&lt;div&gt;price&lt;/div&gt;" style="whiteSpace=wrap;html=1;align=left;fillColor=#d5e8d4;strokeColor=#82b366;verticalAlign=top;fontSize=12;" vertex="1" parent="1">
          <mxGeometry x="480" y="70" width="140" height="160" as="geometry" />
        </mxCell>
        <mxCell id="ZcP2iAY77bGM6cyzcqNs-5" value="&lt;div&gt;&lt;b&gt;dim_store&lt;/b&gt;&lt;/div&gt;&lt;div&gt;&lt;hr&gt;&lt;/div&gt;&lt;div&gt;&lt;u&gt;store_id (PK)&lt;/u&gt;&lt;/div&gt;&lt;div&gt;store_type&lt;/div&gt;&lt;div&gt;store_location&lt;/div&gt;&lt;div&gt;region&lt;/div&gt;" style="whiteSpace=wrap;html=1;align=left;fillColor=#ffe6cc;strokeColor=#d79b00;verticalAlign=top;fontSize=12;" vertex="1" parent="1">
          <mxGeometry x="810" y="280" width="180" height="160" as="geometry" />
        </mxCell>
        <mxCell id="ZcP2iAY77bGM6cyzcqNs-6" value="&lt;div&gt;&lt;b&gt;Report_customer_transaction&lt;/b&gt;&lt;/div&gt;&lt;div&gt;&lt;hr&gt;&lt;/div&gt;&lt;div&gt;Transaction_id (FK)&lt;/div&gt;&lt;div&gt;Customer_ID (FK)&lt;/div&gt;&lt;div&gt;Product_id (FK)&lt;/div&gt;&lt;div&gt;Store_Location (FK)&lt;/div&gt;&lt;div&gt;Purchase_Date&lt;/div&gt;&lt;div&gt;Product_Type&lt;/div&gt;&lt;div&gt;Unit_Price&lt;/div&gt;&lt;div&gt;Quantity&lt;/div&gt;&lt;div&gt;Total_Price&lt;/div&gt;&lt;div&gt;Payment_Method&lt;/div&gt;&lt;div&gt;Channel&lt;/div&gt;&lt;div&gt;Order_Status&lt;/div&gt;&lt;div&gt;Loyalty_Member&lt;/div&gt;&lt;div&gt;Age&lt;/div&gt;&lt;div&gt;Gender&lt;/div&gt;&lt;div&gt;City&lt;/div&gt;" style="whiteSpace=wrap;html=1;align=left;fillColor=#f8cecc;strokeColor=#b85450;verticalAlign=top;fontSize=12;" vertex="1" parent="1">
          <mxGeometry x="790" y="500" width="200" height="270" as="geometry" />
        </mxCell>
        <mxCell id="ZcP2iAY77bGM6cyzcqNs-7" value="" style="endArrow=classic;html=1;rounded=0;exitX=1;exitY=0.5;exitDx=0;exitDy=0;entryX=0;entryY=0.2;entryDx=0;entryDy=0;" edge="1" parent="1" source="ZcP2iAY77bGM6cyzcqNs-3" target="ZcP2iAY77bGM6cyzcqNs-2">
          <mxGeometry width="50" height="50" relative="1" as="geometry">
            <mxPoint x="400" y="400" as="sourcePoint" />
            <mxPoint x="450" y="350" as="targetPoint" />
          </mxGeometry>
        </mxCell>
        <mxCell id="ZcP2iAY77bGM6cyzcqNs-8" value="1:M" style="text;html=1;strokeColor=none;fillColor=none;align=center;verticalAlign=middle;whiteSpace=wrap;rounded=0;fontSize=12;fontStyle=1" vertex="1" parent="1">
          <mxGeometry x="350" y="330" width="40" height="20" as="geometry" />
        </mxCell>
        <mxCell id="ZcP2iAY77bGM6cyzcqNs-9" value="" style="endArrow=classic;html=1;rounded=0;exitX=0.5;exitY=1;exitDx=0;exitDy=0;entryX=0.45;entryY=0.011;entryDx=0;entryDy=0;entryPerimeter=0;" edge="1" parent="1" source="ZcP2iAY77bGM6cyzcqNs-4" target="ZcP2iAY77bGM6cyzcqNs-2">
          <mxGeometry width="50" height="50" relative="1" as="geometry">
            <mxPoint x="400" y="400" as="sourcePoint" />
            <mxPoint x="450" y="350" as="targetPoint" />
          </mxGeometry>
        </mxCell>
        <mxCell id="ZcP2iAY77bGM6cyzcqNs-10" value="1:M" style="text;html=1;strokeColor=none;fillColor=none;align=center;verticalAlign=middle;whiteSpace=wrap;rounded=0;fontSize=12;fontStyle=1" vertex="1" parent="1">
          <mxGeometry x="520" y="260" width="40" height="20" as="geometry" />
        </mxCell>
        <mxCell id="ZcP2iAY77bGM6cyzcqNs-11" value="" style="endArrow=classic;html=1;rounded=0;exitX=0;exitY=0.5;exitDx=0;exitDy=0;entryX=1;entryY=0.3;entryDx=0;entryDy=0;" edge="1" parent="1" source="ZcP2iAY77bGM6cyzcqNs-5" target="ZcP2iAY77bGM6cyzcqNs-2">
          <mxGeometry width="50" height="50" relative="1" as="geometry">
            <mxPoint x="400" y="400" as="sourcePoint" />
            <mxPoint x="450" y="350" as="targetPoint" />
          </mxGeometry>
        </mxCell>
        <mxCell id="ZcP2iAY77bGM6cyzcqNs-12" value="1:M" style="text;html=1;strokeColor=none;fillColor=none;align=center;verticalAlign=middle;whiteSpace=wrap;rounded=0;fontSize=12;fontStyle=1" vertex="1" parent="1">
          <mxGeometry x="700" y="340" width="40" height="20" as="geometry" />
        </mxCell>
        <mxCell id="ZcP2iAY77bGM6cyzcqNs-14" value="1:1" style="text;html=1;strokeColor=none;fillColor=none;align=center;verticalAlign=middle;whiteSpace=wrap;rounded=0;fontSize=12;fontStyle=1" vertex="1" parent="1">
          <mxGeometry x="790" y="700" width="40" height="20" as="geometry" />
        </mxCell>
        <mxCell id="ZcP2iAY77bGM6cyzcqNs-15" value="&lt;b&gt;Legend:&lt;/b&gt;&lt;br&gt;PK = Primary Key&lt;br&gt;FK = Foreign Key&lt;br&gt;1:M = One to Many&lt;br&gt;1:1 = One to One" style="whiteSpace=wrap;html=1;align=left;fillColor=#f5f5f5;strokeColor=#666666;verticalAlign=top;fontSize=12;" vertex="1" parent="1">
          <mxGeometry x="790" y="70" width="200" height="100" as="geometry" />
        </mxCell>
        <mxCell id="ZcP2iAY77bGM6cyzcqNs-17" style="edgeStyle=orthogonalEdgeStyle;rounded=0;orthogonalLoop=1;jettySize=auto;html=1;exitX=0.5;exitY=1;exitDx=0;exitDy=0;entryX=-0.01;entryY=0.389;entryDx=0;entryDy=0;entryPerimeter=0;" edge="1" parent="1" source="ZcP2iAY77bGM6cyzcqNs-2" target="ZcP2iAY77bGM6cyzcqNs-6">
          <mxGeometry relative="1" as="geometry">
            <Array as="points">
              <mxPoint x="560" y="600" />
              <mxPoint x="770" y="600" />
              <mxPoint x="770" y="605" />
            </Array>
          </mxGeometry>
        </mxCell>
      </root>
    </mxGraphModel>
  </diagram>
</mxfile>
